<mxfile host="app.diagrams.net" modified="2024-01-08T07:06:10.841Z" agent="Mozilla/5.0 (X11; Ubuntu; Linux x86_64; rv:109.0) Gecko/20100101 Firefox/113.0" etag="MwpG8iBgGIBDrzQrDWBO" version="22.1.17" type="device">
  <diagram id="P-VI1c5lN4z47ShWNgbN" name="Page-1">
    <mxGraphModel dx="2183" dy="2139" grid="1" gridSize="10" guides="1" tooltips="1" connect="1" arrows="1" fold="1" page="1" pageScale="1" pageWidth="360" pageHeight="1280" math="0" shadow="0">
      <root>
        <mxCell id="0" />
        <mxCell id="1" parent="0" />
        <mxCell id="za8cxoVgFJUtpIf1Vg3n-14" style="edgeStyle=orthogonalEdgeStyle;curved=0;rounded=1;sketch=0;orthogonalLoop=1;jettySize=auto;html=1;exitX=1;exitY=0.5;exitDx=0;exitDy=0;" parent="1" source="za8cxoVgFJUtpIf1Vg3n-8" target="snU7vp7vY-L3-DJ28Kby-14" edge="1">
          <mxGeometry relative="1" as="geometry">
            <Array as="points" />
            <mxPoint x="-111" y="-1347" as="sourcePoint" />
            <mxPoint x="30.5" y="-1245.5" as="targetPoint" />
          </mxGeometry>
        </mxCell>
        <mxCell id="za8cxoVgFJUtpIf1Vg3n-9" value="Token initialised or released" style="text;html=1;align=center;verticalAlign=middle;resizable=0;points=[];autosize=1;strokeColor=none;fillColor=none;" parent="1" vertex="1">
          <mxGeometry x="-328" y="-1213" width="170" height="30" as="geometry" />
        </mxCell>
        <mxCell id="za8cxoVgFJUtpIf1Vg3n-13" value="" style="edgeStyle=orthogonalEdgeStyle;curved=0;rounded=1;sketch=0;orthogonalLoop=1;jettySize=auto;html=1;entryX=0.5;entryY=0;entryDx=0;entryDy=0;" parent="1" source="za8cxoVgFJUtpIf1Vg3n-11" target="za8cxoVgFJUtpIf1Vg3n-18" edge="1">
          <mxGeometry relative="1" as="geometry">
            <mxPoint x="280" y="-1047" as="targetPoint" />
          </mxGeometry>
        </mxCell>
        <mxCell id="za8cxoVgFJUtpIf1Vg3n-11" value="&lt;font style=&quot;font-size: 20px;&quot;&gt;Entered&lt;/font&gt;" style="html=1;align=center;verticalAlign=top;rounded=1;absoluteArcSize=1;arcSize=10;dashed=0;sketch=0;" parent="1" vertex="1">
          <mxGeometry x="210" y="-1123" width="140" height="40" as="geometry" />
        </mxCell>
        <mxCell id="za8cxoVgFJUtpIf1Vg3n-16" style="edgeStyle=orthogonalEdgeStyle;curved=0;rounded=1;sketch=0;orthogonalLoop=1;jettySize=auto;html=1;exitX=0.5;exitY=1;exitDx=0;exitDy=0;entryX=0.5;entryY=0;entryDx=0;entryDy=0;" parent="1" source="za8cxoVgFJUtpIf1Vg3n-18" target="8w_XIC3R3Gnp8hy9f9DH-15" edge="1">
          <mxGeometry relative="1" as="geometry">
            <mxPoint x="280" y="-919" as="sourcePoint" />
          </mxGeometry>
        </mxCell>
        <mxCell id="3fYQ2ZforGHgL0O5d1Yj-3" value="" style="edgeStyle=orthogonalEdgeStyle;rounded=0;orthogonalLoop=1;jettySize=auto;html=1;entryX=0.5;entryY=0;entryDx=0;entryDy=0;" parent="1" source="za8cxoVgFJUtpIf1Vg3n-15" target="8w_XIC3R3Gnp8hy9f9DH-4" edge="1">
          <mxGeometry relative="1" as="geometry" />
        </mxCell>
        <mxCell id="za8cxoVgFJUtpIf1Vg3n-15" value="&lt;font style=&quot;font-size: 20px;&quot;&gt;Busy&lt;/font&gt;" style="html=1;align=center;verticalAlign=top;rounded=1;absoluteArcSize=1;arcSize=10;dashed=0;sketch=0;" parent="1" vertex="1">
          <mxGeometry x="210" y="-885" width="140" height="40" as="geometry" />
        </mxCell>
        <mxCell id="za8cxoVgFJUtpIf1Vg3n-25" style="edgeStyle=orthogonalEdgeStyle;curved=0;rounded=1;sketch=0;orthogonalLoop=1;jettySize=auto;html=1;exitX=1;exitY=0.5;exitDx=0;exitDy=0;entryX=0;entryY=0.5;entryDx=0;entryDy=0;" parent="1" source="za8cxoVgFJUtpIf1Vg3n-18" target="3fYQ2ZforGHgL0O5d1Yj-35" edge="1">
          <mxGeometry relative="1" as="geometry">
            <mxPoint x="490" y="-1024" as="targetPoint" />
          </mxGeometry>
        </mxCell>
        <mxCell id="8w_XIC3R3Gnp8hy9f9DH-11" value="" style="edgeStyle=orthogonalEdgeStyle;rounded=0;orthogonalLoop=1;jettySize=auto;html=1;fontSize=18;entryX=0;entryY=0.5;entryDx=0;entryDy=0;exitX=0;exitY=0.5;exitDx=0;exitDy=0;" parent="1" source="8w_XIC3R3Gnp8hy9f9DH-15" target="3fYQ2ZforGHgL0O5d1Yj-15" edge="1">
          <mxGeometry relative="1" as="geometry">
            <mxPoint x="222" y="-527" as="targetPoint" />
            <Array as="points">
              <mxPoint x="40" y="-946" />
              <mxPoint x="40" y="-400" />
            </Array>
          </mxGeometry>
        </mxCell>
        <mxCell id="za8cxoVgFJUtpIf1Vg3n-18" value="" style="rhombus;rounded=0;sketch=0;" parent="1" vertex="1">
          <mxGeometry x="265" y="-1039" width="30" height="30" as="geometry" />
        </mxCell>
        <mxCell id="za8cxoVgFJUtpIf1Vg3n-26" value="[infeasible]" style="text;html=1;align=left;verticalAlign=middle;resizable=0;points=[];autosize=1;strokeColor=none;fillColor=none;" parent="1" vertex="1">
          <mxGeometry x="300" y="-1061" width="80" height="30" as="geometry" />
        </mxCell>
        <mxCell id="za8cxoVgFJUtpIf1Vg3n-44" style="edgeStyle=orthogonalEdgeStyle;curved=0;rounded=1;sketch=0;orthogonalLoop=1;jettySize=auto;html=1;exitX=1;exitY=0.5;exitDx=0;exitDy=0;entryX=0;entryY=0.5;entryDx=0;entryDy=0;" parent="1" source="za8cxoVgFJUtpIf1Vg3n-35" target="3fYQ2ZforGHgL0O5d1Yj-32" edge="1">
          <mxGeometry relative="1" as="geometry">
            <mxPoint x="500" y="-480" as="targetPoint" />
          </mxGeometry>
        </mxCell>
        <mxCell id="3fYQ2ZforGHgL0O5d1Yj-19" value="" style="edgeStyle=orthogonalEdgeStyle;rounded=0;orthogonalLoop=1;jettySize=auto;html=1;entryX=0.5;entryY=0;entryDx=0;entryDy=0;" parent="1" source="za8cxoVgFJUtpIf1Vg3n-35" target="3fYQ2ZforGHgL0O5d1Yj-15" edge="1">
          <mxGeometry relative="1" as="geometry" />
        </mxCell>
        <mxCell id="za8cxoVgFJUtpIf1Vg3n-35" value="" style="rhombus;rounded=0;sketch=0;" parent="1" vertex="1">
          <mxGeometry x="265" y="-495" width="30" height="30" as="geometry" />
        </mxCell>
        <mxCell id="za8cxoVgFJUtpIf1Vg3n-45" value="[infeasible]" style="text;html=1;align=left;verticalAlign=middle;resizable=0;points=[];autosize=1;strokeColor=none;fillColor=none;" parent="1" vertex="1">
          <mxGeometry x="300" y="-513" width="80" height="30" as="geometry" />
        </mxCell>
        <mxCell id="za8cxoVgFJUtpIf1Vg3n-46" value="[else]" style="text;html=1;align=center;verticalAlign=middle;resizable=0;points=[];autosize=1;strokeColor=none;fillColor=none;" parent="1" vertex="1">
          <mxGeometry x="234" y="-464" width="50" height="30" as="geometry" />
        </mxCell>
        <mxCell id="za8cxoVgFJUtpIf1Vg3n-52" value="Token flow failed" style="text;html=1;align=center;verticalAlign=middle;resizable=0;points=[];autosize=1;strokeColor=none;fillColor=none;" parent="1" vertex="1">
          <mxGeometry x="430" y="-465" width="100" height="20" as="geometry" />
        </mxCell>
        <mxCell id="za8cxoVgFJUtpIf1Vg3n-55" value="" style="edgeStyle=orthogonalEdgeStyle;curved=0;rounded=1;sketch=0;orthogonalLoop=1;jettySize=auto;html=1;entryX=0.5;entryY=0;entryDx=0;entryDy=0;" parent="1" source="vcPXqzRa5Wur5zOReBQw-1" target="0oEC2vUUG_4BZUbGBsNw-6" edge="1">
          <mxGeometry relative="1" as="geometry">
            <mxPoint x="280" y="-101" as="targetPoint" />
            <Array as="points">
              <mxPoint x="280" y="-207" />
            </Array>
          </mxGeometry>
        </mxCell>
        <mxCell id="3fYQ2ZforGHgL0O5d1Yj-38" value="" style="edgeStyle=orthogonalEdgeStyle;rounded=0;orthogonalLoop=1;jettySize=auto;html=1;entryX=0;entryY=0.5;entryDx=0;entryDy=0;exitX=1;exitY=0.5;exitDx=0;exitDy=0;" parent="1" source="0oEC2vUUG_4BZUbGBsNw-6" target="3fYQ2ZforGHgL0O5d1Yj-28" edge="1">
          <mxGeometry relative="1" as="geometry" />
        </mxCell>
        <mxCell id="3fYQ2ZforGHgL0O5d1Yj-2" value="[else]" style="text;html=1;align=center;verticalAlign=middle;resizable=0;points=[];autosize=1;strokeColor=none;fillColor=none;" parent="1" vertex="1">
          <mxGeometry x="235" y="-930" width="50" height="30" as="geometry" />
        </mxCell>
        <mxCell id="3fYQ2ZforGHgL0O5d1Yj-7" value="[token flow ends]" style="text;html=1;align=center;verticalAlign=middle;resizable=0;points=[];autosize=1;strokeColor=none;fillColor=none;" parent="1" vertex="1">
          <mxGeometry x="290" y="-434" width="110" height="30" as="geometry" />
        </mxCell>
        <mxCell id="3fYQ2ZforGHgL0O5d1Yj-9" value="&lt;font style=&quot;font-size: 20px;&quot;&gt;Departed&lt;/font&gt;" style="html=1;align=center;verticalAlign=top;rounded=1;absoluteArcSize=1;arcSize=10;dashed=0;sketch=0;" parent="1" vertex="1">
          <mxGeometry x="210" y="-258" width="140" height="40" as="geometry" />
        </mxCell>
        <mxCell id="3fYQ2ZforGHgL0O5d1Yj-14" style="edgeStyle=orthogonalEdgeStyle;rounded=0;orthogonalLoop=1;jettySize=auto;html=1;exitX=1;exitY=0.5;exitDx=0;exitDy=0;entryX=0;entryY=0.5;entryDx=0;entryDy=0;" parent="1" source="3fYQ2ZforGHgL0O5d1Yj-15" target="2N3C2ULwQ1HncgFvhACk-1" edge="1">
          <mxGeometry relative="1" as="geometry">
            <mxPoint x="500" y="-400" as="targetPoint" />
          </mxGeometry>
        </mxCell>
        <mxCell id="3fYQ2ZforGHgL0O5d1Yj-21" value="" style="edgeStyle=orthogonalEdgeStyle;rounded=0;orthogonalLoop=1;jettySize=auto;html=1;entryX=0.5;entryY=0;entryDx=0;entryDy=0;" parent="1" source="3fYQ2ZforGHgL0O5d1Yj-15" target="8w_XIC3R3Gnp8hy9f9DH-18" edge="1">
          <mxGeometry relative="1" as="geometry" />
        </mxCell>
        <mxCell id="3fYQ2ZforGHgL0O5d1Yj-15" value="" style="rhombus;rounded=0;sketch=0;" parent="1" vertex="1">
          <mxGeometry x="265" y="-415" width="30" height="30" as="geometry" />
        </mxCell>
        <mxCell id="3fYQ2ZforGHgL0O5d1Yj-17" value="[else]" style="text;html=1;align=center;verticalAlign=middle;resizable=0;points=[];autosize=1;strokeColor=none;fillColor=none;" parent="1" vertex="1">
          <mxGeometry x="235" y="-384" width="50" height="30" as="geometry" />
        </mxCell>
        <mxCell id="3fYQ2ZforGHgL0O5d1Yj-27" value="[gateway activation required]" style="text;html=1;align=right;verticalAlign=middle;resizable=0;points=[];autosize=1;strokeColor=none;fillColor=none;" parent="1" vertex="1">
          <mxGeometry x="282.5" y="-112" width="170" height="30" as="geometry" />
        </mxCell>
        <mxCell id="3fYQ2ZforGHgL0O5d1Yj-28" value="" style="ellipse;html=1;shape=endState;fillColor=#000000;strokeColor=#000000;" parent="1" vertex="1">
          <mxGeometry x="466" y="-96" width="30" height="30" as="geometry" />
        </mxCell>
        <mxCell id="3fYQ2ZforGHgL0O5d1Yj-29" value="Token waiting" style="text;html=1;align=center;verticalAlign=middle;resizable=0;points=[];autosize=1;strokeColor=none;fillColor=none;" parent="1" vertex="1">
          <mxGeometry x="430" y="-73" width="100" height="30" as="geometry" />
        </mxCell>
        <mxCell id="3fYQ2ZforGHgL0O5d1Yj-30" value="" style="ellipse;html=1;shape=endState;fillColor=#000000;strokeColor=#000000;" parent="1" vertex="1">
          <mxGeometry x="627" y="-415" width="30" height="30" as="geometry" />
        </mxCell>
        <mxCell id="3fYQ2ZforGHgL0O5d1Yj-31" value="Token disposed" style="text;html=1;align=center;verticalAlign=middle;resizable=0;points=[];autosize=1;strokeColor=none;fillColor=none;" parent="1" vertex="1">
          <mxGeometry x="587" y="-387" width="110" height="30" as="geometry" />
        </mxCell>
        <mxCell id="3fYQ2ZforGHgL0O5d1Yj-32" value="" style="ellipse;html=1;shape=endState;fillColor=#000000;strokeColor=#000000;rounded=0;sketch=0;" parent="1" vertex="1">
          <mxGeometry x="465" y="-495" width="30" height="30" as="geometry" />
        </mxCell>
        <mxCell id="3fYQ2ZforGHgL0O5d1Yj-34" value="Token flow failed" style="text;html=1;align=center;verticalAlign=middle;resizable=0;points=[];autosize=1;strokeColor=none;fillColor=none;" parent="1" vertex="1">
          <mxGeometry x="437" y="-1010" width="100" height="20" as="geometry" />
        </mxCell>
        <mxCell id="3fYQ2ZforGHgL0O5d1Yj-35" value="" style="ellipse;html=1;shape=endState;fillColor=#000000;strokeColor=#000000;rounded=0;sketch=0;" parent="1" vertex="1">
          <mxGeometry x="466" y="-1039" width="30" height="30" as="geometry" />
        </mxCell>
        <mxCell id="3fYQ2ZforGHgL0O5d1Yj-40" value="[else]" style="text;html=1;align=right;verticalAlign=middle;resizable=0;points=[];autosize=1;strokeColor=none;fillColor=none;" parent="1" vertex="1">
          <mxGeometry x="205" y="-117" width="50" height="40" as="geometry" />
        </mxCell>
        <mxCell id="3fYQ2ZforGHgL0O5d1Yj-43" value="" style="edgeStyle=orthogonalEdgeStyle;rounded=0;orthogonalLoop=1;jettySize=auto;html=1;" parent="1" source="3fYQ2ZforGHgL0O5d1Yj-42" target="3fYQ2ZforGHgL0O5d1Yj-9" edge="1">
          <mxGeometry relative="1" as="geometry" />
        </mxCell>
        <mxCell id="3fYQ2ZforGHgL0O5d1Yj-42" value="" style="ellipse;fillColor=#000000;strokeColor=none;" parent="1" vertex="1">
          <mxGeometry x="66" y="-253" width="30" height="30" as="geometry" />
        </mxCell>
        <mxCell id="3fYQ2ZforGHgL0O5d1Yj-44" value="Token copy created" style="text;html=1;align=center;verticalAlign=middle;resizable=0;points=[];autosize=1;strokeColor=none;fillColor=none;" parent="1" vertex="1">
          <mxGeometry x="21" y="-225" width="120" height="20" as="geometry" />
        </mxCell>
        <mxCell id="0oEC2vUUG_4BZUbGBsNw-6" value="" style="rhombus;" parent="1" vertex="1">
          <mxGeometry x="265" y="-96" width="30" height="30" as="geometry" />
        </mxCell>
        <mxCell id="8w_XIC3R3Gnp8hy9f9DH-1" style="edgeStyle=orthogonalEdgeStyle;curved=0;rounded=1;sketch=0;orthogonalLoop=1;jettySize=auto;html=1;exitX=0.5;exitY=1;exitDx=0;exitDy=0;entryX=0.5;entryY=0;entryDx=0;entryDy=0;" parent="1" source="8w_XIC3R3Gnp8hy9f9DH-4" target="8w_XIC3R3Gnp8hy9f9DH-2" edge="1">
          <mxGeometry relative="1" as="geometry">
            <mxPoint x="280" y="-758" as="sourcePoint" />
          </mxGeometry>
        </mxCell>
        <mxCell id="8w_XIC3R3Gnp8hy9f9DH-9" value="" style="edgeStyle=orthogonalEdgeStyle;rounded=0;orthogonalLoop=1;jettySize=auto;html=1;entryX=0.5;entryY=0;entryDx=0;entryDy=0;exitX=0.5;exitY=1;exitDx=0;exitDy=0;" parent="1" source="99d435sOc-H3mGRztFdo-16" target="snU7vp7vY-L3-DJ28Kby-25" edge="1">
          <mxGeometry relative="1" as="geometry">
            <mxPoint x="279" y="-567" as="targetPoint" />
            <mxPoint x="279" y="-618" as="sourcePoint" />
          </mxGeometry>
        </mxCell>
        <mxCell id="99d435sOc-H3mGRztFdo-19" value="&lt;font style=&quot;font-size: 12px;&quot;&gt;exit event&lt;/font&gt;" style="edgeLabel;html=1;align=center;verticalAlign=middle;resizable=0;points=[];" parent="8w_XIC3R3Gnp8hy9f9DH-9" vertex="1" connectable="0">
          <mxGeometry x="-0.0588" relative="1" as="geometry">
            <mxPoint x="-40" y="-1" as="offset" />
          </mxGeometry>
        </mxCell>
        <mxCell id="8w_XIC3R3Gnp8hy9f9DH-2" value="&lt;font style=&quot;font-size: 20px;&quot;&gt;Completed&lt;/font&gt;" style="html=1;align=center;verticalAlign=top;rounded=1;absoluteArcSize=1;arcSize=10;dashed=0;sketch=0;" parent="1" vertex="1">
          <mxGeometry x="210" y="-724" width="140" height="40" as="geometry" />
        </mxCell>
        <mxCell id="8w_XIC3R3Gnp8hy9f9DH-3" style="edgeStyle=orthogonalEdgeStyle;curved=0;rounded=1;sketch=0;orthogonalLoop=1;jettySize=auto;html=1;exitX=1;exitY=0.5;exitDx=0;exitDy=0;entryX=0;entryY=0.5;entryDx=0;entryDy=0;" parent="1" source="8w_XIC3R3Gnp8hy9f9DH-4" target="8w_XIC3R3Gnp8hy9f9DH-8" edge="1">
          <mxGeometry relative="1" as="geometry">
            <mxPoint x="490" y="-785" as="targetPoint" />
          </mxGeometry>
        </mxCell>
        <mxCell id="8w_XIC3R3Gnp8hy9f9DH-4" value="" style="rhombus;rounded=0;sketch=0;" parent="1" vertex="1">
          <mxGeometry x="265" y="-800" width="30" height="30" as="geometry" />
        </mxCell>
        <mxCell id="8w_XIC3R3Gnp8hy9f9DH-5" value="failed" style="text;html=1;align=left;verticalAlign=middle;resizable=0;points=[];autosize=1;strokeColor=none;fillColor=none;" parent="1" vertex="1">
          <mxGeometry x="300" y="-820" width="50" height="30" as="geometry" />
        </mxCell>
        <mxCell id="8w_XIC3R3Gnp8hy9f9DH-6" value="completion or trigger event" style="text;html=1;align=center;verticalAlign=middle;resizable=0;points=[];autosize=1;strokeColor=none;fillColor=none;" parent="1" vertex="1">
          <mxGeometry x="118" y="-758" width="170" height="30" as="geometry" />
        </mxCell>
        <mxCell id="8w_XIC3R3Gnp8hy9f9DH-7" value="Token flow failed" style="text;html=1;align=center;verticalAlign=middle;resizable=0;points=[];autosize=1;strokeColor=none;fillColor=none;" parent="1" vertex="1">
          <mxGeometry x="432" y="-775" width="110" height="30" as="geometry" />
        </mxCell>
        <mxCell id="8w_XIC3R3Gnp8hy9f9DH-8" value="" style="ellipse;html=1;shape=endState;fillColor=#000000;strokeColor=#000000;rounded=0;sketch=0;" parent="1" vertex="1">
          <mxGeometry x="466" y="-800" width="30" height="30" as="geometry" />
        </mxCell>
        <mxCell id="8w_XIC3R3Gnp8hy9f9DH-16" value="" style="edgeStyle=orthogonalEdgeStyle;rounded=0;orthogonalLoop=1;jettySize=auto;html=1;fontSize=12;entryX=0.5;entryY=0;entryDx=0;entryDy=0;" parent="1" source="8w_XIC3R3Gnp8hy9f9DH-15" target="za8cxoVgFJUtpIf1Vg3n-15" edge="1">
          <mxGeometry relative="1" as="geometry" />
        </mxCell>
        <mxCell id="8w_XIC3R3Gnp8hy9f9DH-15" value="" style="rhombus;fontSize=12;" parent="1" vertex="1">
          <mxGeometry x="265" y="-961" width="30" height="30" as="geometry" />
        </mxCell>
        <mxCell id="8w_XIC3R3Gnp8hy9f9DH-17" value="[else]" style="text;html=1;align=center;verticalAlign=middle;resizable=0;points=[];autosize=1;strokeColor=none;fillColor=none;" parent="1" vertex="1">
          <mxGeometry x="235" y="-1014" width="50" height="30" as="geometry" />
        </mxCell>
        <mxCell id="8w_XIC3R3Gnp8hy9f9DH-20" value="" style="edgeStyle=orthogonalEdgeStyle;rounded=0;orthogonalLoop=1;jettySize=auto;html=1;fontSize=12;entryX=0.5;entryY=0;entryDx=0;entryDy=0;" parent="1" source="8w_XIC3R3Gnp8hy9f9DH-18" target="3fYQ2ZforGHgL0O5d1Yj-9" edge="1">
          <mxGeometry relative="1" as="geometry" />
        </mxCell>
        <mxCell id="8w_XIC3R3Gnp8hy9f9DH-18" value="" style="rhombus;fontSize=12;" parent="1" vertex="1">
          <mxGeometry x="265" y="-334" width="30" height="30" as="geometry" />
        </mxCell>
        <mxCell id="8w_XIC3R3Gnp8hy9f9DH-21" value="[else]" style="text;html=1;align=center;verticalAlign=middle;resizable=0;points=[];autosize=1;strokeColor=none;fillColor=none;" parent="1" vertex="1">
          <mxGeometry x="235" y="-308" width="50" height="30" as="geometry" />
        </mxCell>
        <mxCell id="8w_XIC3R3Gnp8hy9f9DH-23" value="[multiple tokens continue]" style="text;html=1;align=center;verticalAlign=middle;resizable=0;points=[];autosize=1;strokeColor=none;fillColor=none;" parent="1" vertex="1">
          <mxGeometry x="109" y="-353" width="160" height="30" as="geometry" />
        </mxCell>
        <mxCell id="8w_XIC3R3Gnp8hy9f9DH-24" style="edgeStyle=orthogonalEdgeStyle;rounded=0;orthogonalLoop=1;jettySize=auto;html=1;entryX=1;entryY=0.5;entryDx=0;entryDy=0;exitX=0;exitY=0.5;exitDx=0;exitDy=0;" parent="1" source="8w_XIC3R3Gnp8hy9f9DH-18" target="8w_XIC3R3Gnp8hy9f9DH-25" edge="1">
          <mxGeometry relative="1" as="geometry">
            <mxPoint x="501" y="-319" as="targetPoint" />
            <mxPoint x="322" y="-297" as="sourcePoint" />
            <Array as="points">
              <mxPoint x="220" y="-319" />
              <mxPoint x="220" y="-319" />
            </Array>
          </mxGeometry>
        </mxCell>
        <mxCell id="8w_XIC3R3Gnp8hy9f9DH-25" value="" style="ellipse;html=1;shape=endState;fillColor=#000000;strokeColor=#000000;" parent="1" vertex="1">
          <mxGeometry x="64.5" y="-334" width="30" height="30" as="geometry" />
        </mxCell>
        <mxCell id="8w_XIC3R3Gnp8hy9f9DH-26" value="Token to be copied" style="text;html=1;align=center;verticalAlign=middle;resizable=0;points=[];autosize=1;strokeColor=none;fillColor=none;" parent="1" vertex="1">
          <mxGeometry x="18.5" y="-303" width="120" height="20" as="geometry" />
        </mxCell>
        <mxCell id="2N3C2ULwQ1HncgFvhACk-2" value="" style="edgeStyle=orthogonalEdgeStyle;rounded=0;orthogonalLoop=1;jettySize=auto;html=1;entryX=0;entryY=0.5;entryDx=0;entryDy=0;" parent="1" source="2N3C2ULwQ1HncgFvhACk-1" target="3fYQ2ZforGHgL0O5d1Yj-30" edge="1">
          <mxGeometry relative="1" as="geometry" />
        </mxCell>
        <mxCell id="2N3C2ULwQ1HncgFvhACk-1" value="&lt;font style=&quot;font-size: 20px;&quot;&gt;Done&lt;/font&gt;" style="html=1;align=center;verticalAlign=top;rounded=1;absoluteArcSize=1;arcSize=10;dashed=0;sketch=0;" parent="1" vertex="1">
          <mxGeometry x="409" y="-420" width="140" height="40" as="geometry" />
        </mxCell>
        <mxCell id="snU7vp7vY-L3-DJ28Kby-16" value="" style="edgeStyle=orthogonalEdgeStyle;rounded=0;orthogonalLoop=1;jettySize=auto;html=1;entryX=0.5;entryY=1;entryDx=0;entryDy=0;exitX=0;exitY=0.5;exitDx=0;exitDy=0;" parent="1" source="0oEC2vUUG_4BZUbGBsNw-6" target="snU7vp7vY-L3-DJ28Kby-14" edge="1">
          <mxGeometry relative="1" as="geometry">
            <mxPoint x="-61.5" y="-1063" as="targetPoint" />
            <Array as="points">
              <mxPoint x="-130" y="-81" />
            </Array>
            <mxPoint x="163.5" y="-47" as="sourcePoint" />
          </mxGeometry>
        </mxCell>
        <mxCell id="99d435sOc-H3mGRztFdo-5" value="" style="edgeStyle=orthogonalEdgeStyle;rounded=0;orthogonalLoop=1;jettySize=auto;html=1;entryX=0;entryY=0.5;entryDx=0;entryDy=0;" parent="1" source="snU7vp7vY-L3-DJ28Kby-14" target="99d435sOc-H3mGRztFdo-4" edge="1">
          <mxGeometry relative="1" as="geometry">
            <mxPoint x="-160" y="-967" as="targetPoint" />
          </mxGeometry>
        </mxCell>
        <mxCell id="snU7vp7vY-L3-DJ28Kby-14" value="" style="rhombus;rounded=0;sketch=0;" parent="1" vertex="1">
          <mxGeometry x="-145" y="-1238" width="30" height="30" as="geometry" />
        </mxCell>
        <mxCell id="za8cxoVgFJUtpIf1Vg3n-8" value="" style="ellipse;fillColor=#000000;strokeColor=none;rounded=0;sketch=0;" parent="1" vertex="1">
          <mxGeometry x="-259" y="-1238" width="30" height="30" as="geometry" />
        </mxCell>
        <mxCell id="snU7vp7vY-L3-DJ28Kby-20" value="" style="edgeStyle=orthogonalEdgeStyle;rounded=0;orthogonalLoop=1;jettySize=auto;html=1;entryX=0;entryY=0.5;entryDx=0;entryDy=0;exitX=1;exitY=0.5;exitDx=0;exitDy=0;" parent="1" source="99d435sOc-H3mGRztFdo-4" target="99d435sOc-H3mGRztFdo-2" edge="1">
          <mxGeometry relative="1" as="geometry">
            <mxPoint x="190" y="-1267" as="sourcePoint" />
            <mxPoint x="265" y="-1223" as="targetPoint" />
            <Array as="points" />
          </mxGeometry>
        </mxCell>
        <mxCell id="99d435sOc-H3mGRztFdo-11" value="[activity]" style="edgeLabel;html=1;align=center;verticalAlign=middle;resizable=0;points=[];" parent="snU7vp7vY-L3-DJ28Kby-20" vertex="1" connectable="0">
          <mxGeometry x="-0.7487" y="2" relative="1" as="geometry">
            <mxPoint x="3" y="-15" as="offset" />
          </mxGeometry>
        </mxCell>
        <mxCell id="snU7vp7vY-L3-DJ28Kby-41" value="" style="edgeStyle=orthogonalEdgeStyle;rounded=0;orthogonalLoop=1;jettySize=auto;html=1;entryX=0.5;entryY=0;entryDx=0;entryDy=0;" parent="1" source="snU7vp7vY-L3-DJ28Kby-25" target="za8cxoVgFJUtpIf1Vg3n-35" edge="1">
          <mxGeometry relative="1" as="geometry" />
        </mxCell>
        <mxCell id="snU7vp7vY-L3-DJ28Kby-25" value="&lt;font style=&quot;font-size: 20px;&quot;&gt;Exiting&lt;/font&gt;" style="html=1;align=center;verticalAlign=top;rounded=1;absoluteArcSize=1;arcSize=10;dashed=0;sketch=0;" parent="1" vertex="1">
          <mxGeometry x="210" y="-578" width="140" height="40" as="geometry" />
        </mxCell>
        <mxCell id="snU7vp7vY-L3-DJ28Kby-38" style="edgeStyle=orthogonalEdgeStyle;curved=0;rounded=1;sketch=0;orthogonalLoop=1;jettySize=auto;html=1;exitX=0.5;exitY=1;exitDx=0;exitDy=0;entryX=0.5;entryY=0;entryDx=0;entryDy=0;" parent="1" source="99d435sOc-H3mGRztFdo-2" target="za8cxoVgFJUtpIf1Vg3n-11" edge="1">
          <mxGeometry relative="1" as="geometry">
            <Array as="points" />
            <mxPoint x="280.125" y="-1179" as="sourcePoint" />
            <mxPoint x="175" y="-1103.5" as="targetPoint" />
          </mxGeometry>
        </mxCell>
        <mxCell id="jscgMp9m38hc4Us3CfC8-1" value="entry event" style="text;html=1;align=center;verticalAlign=middle;resizable=0;points=[];autosize=1;strokeColor=none;fillColor=none;" parent="1" vertex="1">
          <mxGeometry x="202.5" y="-1160" width="80" height="30" as="geometry" />
        </mxCell>
        <mxCell id="99d435sOc-H3mGRztFdo-2" value="&lt;font style=&quot;font-size: 20px;&quot;&gt;Ready&lt;/font&gt;" style="html=1;align=center;verticalAlign=top;rounded=1;absoluteArcSize=1;arcSize=10;dashed=0;sketch=0;" parent="1" vertex="1">
          <mxGeometry x="210" y="-1243" width="140" height="40" as="geometry" />
        </mxCell>
        <mxCell id="99d435sOc-H3mGRztFdo-4" value="" style="rhombus;rounded=0;sketch=0;" parent="1" vertex="1">
          <mxGeometry x="25.5" y="-1238" width="30" height="30" as="geometry" />
        </mxCell>
        <mxCell id="99d435sOc-H3mGRztFdo-9" value="" style="edgeStyle=orthogonalEdgeStyle;rounded=0;orthogonalLoop=1;jettySize=auto;html=1;entryX=0;entryY=0.5;entryDx=0;entryDy=0;exitX=0.5;exitY=1;exitDx=0;exitDy=0;" parent="1" source="99d435sOc-H3mGRztFdo-4" target="za8cxoVgFJUtpIf1Vg3n-11" edge="1">
          <mxGeometry relative="1" as="geometry">
            <mxPoint x="-100" y="-1080" as="sourcePoint" />
            <mxPoint x="275" y="-1356" as="targetPoint" />
            <Array as="points">
              <mxPoint x="41" y="-1103" />
            </Array>
          </mxGeometry>
        </mxCell>
        <mxCell id="99d435sOc-H3mGRztFdo-10" value="[no activity]" style="edgeLabel;html=1;align=center;verticalAlign=middle;resizable=0;points=[];" parent="99d435sOc-H3mGRztFdo-9" vertex="1" connectable="0">
          <mxGeometry x="-0.4027" y="5" relative="1" as="geometry">
            <mxPoint x="-40" y="-72" as="offset" />
          </mxGeometry>
        </mxCell>
        <mxCell id="99d435sOc-H3mGRztFdo-17" value="" style="edgeStyle=orthogonalEdgeStyle;rounded=0;orthogonalLoop=1;jettySize=auto;html=1;entryX=0.5;entryY=0;entryDx=0;entryDy=0;" parent="1" source="8w_XIC3R3Gnp8hy9f9DH-2" target="99d435sOc-H3mGRztFdo-16" edge="1">
          <mxGeometry relative="1" as="geometry">
            <mxPoint x="280" y="-526" as="targetPoint" />
            <mxPoint x="280" y="-684" as="sourcePoint" />
          </mxGeometry>
        </mxCell>
        <mxCell id="99d435sOc-H3mGRztFdo-18" value="" style="edgeStyle=orthogonalEdgeStyle;rounded=0;orthogonalLoop=1;jettySize=auto;html=1;entryX=0;entryY=0.5;entryDx=0;entryDy=0;exitX=0;exitY=0.5;exitDx=0;exitDy=0;" parent="1" source="99d435sOc-H3mGRztFdo-16" target="za8cxoVgFJUtpIf1Vg3n-35" edge="1">
          <mxGeometry relative="1" as="geometry">
            <Array as="points">
              <mxPoint x="120" y="-633" />
              <mxPoint x="120" y="-480" />
            </Array>
          </mxGeometry>
        </mxCell>
        <mxCell id="99d435sOc-H3mGRztFdo-20" value="[no activity]" style="edgeLabel;html=1;align=center;verticalAlign=middle;resizable=0;points=[];" parent="99d435sOc-H3mGRztFdo-18" vertex="1" connectable="0">
          <mxGeometry x="-0.7875" y="4" relative="1" as="geometry">
            <mxPoint x="16" y="-19" as="offset" />
          </mxGeometry>
        </mxCell>
        <mxCell id="99d435sOc-H3mGRztFdo-16" value="" style="rhombus;rounded=0;sketch=0;" parent="1" vertex="1">
          <mxGeometry x="265" y="-648" width="30" height="30" as="geometry" />
        </mxCell>
        <mxCell id="99d435sOc-H3mGRztFdo-22" value="" style="ellipse;html=1;shape=endState;fillColor=#000000;strokeColor=#000000;" parent="1" vertex="1">
          <mxGeometry x="466" y="-334" width="30" height="30" as="geometry" />
        </mxCell>
        <mxCell id="99d435sOc-H3mGRztFdo-23" value="Token flow failed" style="text;html=1;align=center;verticalAlign=middle;resizable=0;points=[];autosize=1;strokeColor=none;fillColor=none;" parent="1" vertex="1">
          <mxGeometry x="424" y="-310" width="110" height="30" as="geometry" />
        </mxCell>
        <mxCell id="99d435sOc-H3mGRztFdo-24" style="edgeStyle=orthogonalEdgeStyle;rounded=0;orthogonalLoop=1;jettySize=auto;html=1;exitX=1;exitY=0.5;exitDx=0;exitDy=0;entryX=0;entryY=0.5;entryDx=0;entryDy=0;" parent="1" source="8w_XIC3R3Gnp8hy9f9DH-18" target="99d435sOc-H3mGRztFdo-22" edge="1">
          <mxGeometry relative="1" as="geometry">
            <mxPoint x="419" y="-390" as="targetPoint" />
            <mxPoint x="305" y="-390" as="sourcePoint" />
          </mxGeometry>
        </mxCell>
        <mxCell id="99d435sOc-H3mGRztFdo-25" value="[no token continues]" style="edgeLabel;html=1;align=center;verticalAlign=middle;resizable=0;points=[];" parent="99d435sOc-H3mGRztFdo-24" vertex="1" connectable="0">
          <mxGeometry x="-0.4152" y="4" relative="1" as="geometry">
            <mxPoint x="3" y="-15" as="offset" />
          </mxGeometry>
        </mxCell>
        <mxCell id="vcPXqzRa5Wur5zOReBQw-2" value="" style="edgeStyle=orthogonalEdgeStyle;curved=0;rounded=1;sketch=0;orthogonalLoop=1;jettySize=auto;html=1;entryX=0.5;entryY=0;entryDx=0;entryDy=0;" parent="1" source="3fYQ2ZforGHgL0O5d1Yj-9" target="vcPXqzRa5Wur5zOReBQw-1" edge="1">
          <mxGeometry relative="1" as="geometry">
            <mxPoint x="280" y="-93" as="targetPoint" />
            <Array as="points">
              <mxPoint x="280" y="-207" />
            </Array>
            <mxPoint x="280" y="-218" as="sourcePoint" />
          </mxGeometry>
        </mxCell>
        <mxCell id="vcPXqzRa5Wur5zOReBQw-1" value="&lt;font style=&quot;font-size: 20px;&quot;&gt;Arrived&lt;/font&gt;" style="html=1;align=center;verticalAlign=top;rounded=1;absoluteArcSize=1;arcSize=10;dashed=0;sketch=0;" parent="1" vertex="1">
          <mxGeometry x="210" y="-177" width="140" height="40" as="geometry" />
        </mxCell>
        <mxCell id="y1aeJlVFXBLF9-1TJrM0-2" value="ready event" style="edgeLabel;html=1;align=center;verticalAlign=middle;resizable=0;points=[];" parent="1" vertex="1" connectable="0">
          <mxGeometry x="141" y="-1213" as="geometry">
            <mxPoint x="16" y="-1" as="offset" />
          </mxGeometry>
        </mxCell>
        <mxCell id="y1aeJlVFXBLF9-1TJrM0-3" value="[activity]" style="edgeLabel;html=1;align=center;verticalAlign=middle;resizable=0;points=[];" parent="1" vertex="1" connectable="0">
          <mxGeometry x="329.4522527809795" y="-626.9098887608204" as="geometry">
            <mxPoint x="-20" y="14" as="offset" />
          </mxGeometry>
        </mxCell>
        <mxCell id="RPr7SAVntSFsbUS25HtW-2" value="[instantaneous]" style="text;whiteSpace=wrap;html=1;" vertex="1" parent="1">
          <mxGeometry x="176" y="-973" width="60" height="40" as="geometry" />
        </mxCell>
      </root>
    </mxGraphModel>
  </diagram>
</mxfile>
